inDegrees=no
num_controls=7
num_derivatives=13
num_iterations=139
num_multipliers=7
num_parameters=0
num_slacks=7
num_states=26
objective=5.775363
objective_accelerations=0.649123
objective_balance=0.051813
objective_effort=0.516037
objective_height=4.517118
objective_ligament=0.041272
solver_duration=1631.810242
status=Solve_Succeeded
success=true
DataType=double
version=3
OpenSimVersion=4.4-2022-07-23-0e9fedc
endheader
time	/jointset/ground_pelvis/pelvis_tilt/value	/jointset/ground_pelvis/pelvis_tx/value	/jointset/ground_pelvis/pelvis_ty/value	/jointset/hip_l/hip_flexion_l/value	/jointset/hip_l/hip_adduction_l/value	/jointset/hip_l/hip_rotation_l/value	/jointset/back/lumbar_extension/value	/jointset/patellofemoral_l/patellar_flexion_l/value	/jointset/knee_l/knee_flexion_l/value	/jointset/knee_l/knee_adduction_l/value	/jointset/knee_l/knee_rotation_l/value	/jointset/ankle_l/ankle_angle_l/value	/jointset/subtalar_l/subtalar_angle_l/value	/jointset/ground_pelvis/pelvis_tilt/speed	/jointset/ground_pelvis/pelvis_tx/speed	/jointset/ground_pelvis/pelvis_ty/speed	/jointset/hip_l/hip_flexion_l/speed	/jointset/hip_l/hip_adduction_l/speed	/jointset/hip_l/hip_rotation_l/speed	/jointset/back/lumbar_extension/speed	/jointset/patellofemoral_l/patellar_flexion_l/speed	/jointset/knee_l/knee_flexion_l/speed	/jointset/knee_l/knee_adduction_l/speed	/jointset/knee_l/knee_rotation_l/speed	/jointset/ankle_l/ankle_angle_l/speed	/jointset/subtalar_l/subtalar_angle_l/speed	/forceset/tau_hip_flexion_l	/forceset/tau_hip_adduction_l	/forceset/tau_hip_rotation_l	/forceset/tau_knee_flexion_l	/forceset/tau_ankle_angle_l	/forceset/tau_subtalar_angle_l	/forceset/tau_lumbar_extension	lambda_cid13_p0	lambda_cid13_p1	lambda_cid13_p2	lambda_cid13_p3	lambda_cid13_p4	lambda_cid13_p5	lambda_cid14_p0	/jointset/ground_pelvis/pelvis_tilt/accel	/jointset/ground_pelvis/pelvis_tx/accel	/jointset/ground_pelvis/pelvis_ty/accel	/jointset/hip_l/hip_flexion_l/accel	/jointset/hip_l/hip_adduction_l/accel	/jointset/hip_l/hip_rotation_l/accel	/jointset/back/lumbar_extension/accel	/jointset/patellofemoral_l/patellar_flexion_l/accel	/jointset/knee_l/knee_flexion_l/accel	/jointset/knee_l/knee_adduction_l/accel	/jointset/knee_l/knee_rotation_l/accel	/jointset/ankle_l/ankle_angle_l/accel	/jointset/subtalar_l/subtalar_angle_l/accel	gamma_cid13_p0	gamma_cid13_p1	gamma_cid13_p2	gamma_cid13_p3	gamma_cid13_p4	gamma_cid13_p5	gamma_cid14_p0
1	-0.752155609659473	-0.1913025207405433	0.571263951712205	2.094391008305389	-0.3080982834912208	0.09695954097693417	-0.43626384818518	1.113220445967431	1.113220445967629	-0.1742572065693533	0.1744723508888726	-0.04764593141337779	-0.06899856286846202	-0.01147803996470921	0.0003093844581850994	-0.002866417948785472	0.01638500469171702	0.0004591246618877294	0.002387094789361102	0.0002161562739595311	0.006207324854141718	0.006207324854143394	4.291160497802021e-05	7.528252179510536e-06	0.001775033361509156	0.0007234144914135778	-0.4866456954920374	-0.01209438326279713	-0.01842724118673305	-0.2225366142797077	0.2476997274915314	0.03209505857682109	0.37765080235608	31.93816079789117	-19.20864393871973	2.291728125808796	0.7776397976830005	-733.7129748206735	-43.5182650477694	-3.304588855147859	2.081366469989283	0.3993023638510182	1.731085763772036	-6.537055915031305	-0.2508132253045046	-1.557361857033404	-0.019527195393249	-4.233088512611763	-4.233088512607836	-0.03220895780314061	0.01100935556121756	-0.01897928232220598	-0.1995966979627052	4.13716774237724e-10	2.006477477792529e-09	-2.554242098819518e-09	2.557567856448733e-10	7.606224915379272e-10	-2.274249531098169e-09	8.312085424739977e-10
1.01	-0.7521669691385348	-0.1912794866198443	0.5713218106937946	2.094228649125347	-0.3081054392639139	0.09690499440330948	-0.4362618021116648	1.113070859802865	1.113070859803045	-0.1742567377436393	0.1744724179585918	-0.04762891879147717	-0.06900049359027666	0.009229168286119192	0.004304778627659015	0.01444365993378347	-0.04888994056990541	-0.00188722690227516	-0.01329303161852026	0.0001843108585806203	-0.03612586330547755	-0.0361258633054614	5.020827583465705e-05	3.813369030999849e-06	0.001637425022245623	-0.001104640274226647	-0.4868080995508863	-0.01207168876363955	-0.01843736625799484	-0.2225704929777273	0.2478823609122385	0.03211841724483481	0.3778196918144522	31.98983818700401	-19.22890877223604	2.296183042837719	0.65651762327398	-733.8899098935145	-43.55058233138022	-3.310583904541853	2.068851327066753	0.4007594497736383	1.731784644602971	-6.527679222524803	-0.2260894182513586	-1.572834343714303	0.003674638426485552	-4.233629119536728	-4.233629119536996	0.01710101743643719	-0.00637654905088707	-0.009661318629246678	-0.1736731710850809	-2.748477403277242e-09	-3.977795659548797e-09	1.467297699879273e-08	3.291781927526778e-09	-4.971986508733842e-09	1.72894409783162e-08	-3.353766056332521e-09
1.02	-0.751970565870232	-0.1912162782561945	0.5715529336230314	2.093412547414558	-0.3081359672115109	0.09669374730341378	-0.4362603369215697	1.112497902726334	1.112497902726488	-0.1742562155435031	0.1744723849519959	-0.04761298419475198	-0.06902055752079111	0.03007450951448126	0.008344233048334421	0.03178637158063355	-0.1143635014633802	-0.004215310317605117	-0.02895301046834668	9.997956470757832e-05	-0.07846685754108522	-0.07846685754108398	5.358646295675827e-05	-1.248706601564663e-05	0.001559428326945401	-0.002903227248690189	-0.4869705036095568	-0.01204899426446238	-0.01844749133070673	-0.222604371675691	0.2480649943329086	0.03214177591286318	0.3779885812730329	32.03857660910233	-19.2497715725579	2.302004375066303	0.5254779664019619	-734.1155503260285	-43.56129944519415	-3.333558817232949	2.10899306549611	0.4081144140912754	1.737612516628272	-6.576779041401855	-0.24715959553773	-1.553332345422177	-0.03002437109545724	-4.234649727809519	-4.234649727811471	-0.0329926545499811	0.008492245181236306	-0.007056953529573215	-0.1937031397271946	-4.602906050107839e-09	-1.057535061162463e-08	3.192205013002434e-08	2.461040211109076e-09	-9.041995996291979e-09	3.707229672379243e-08	-7.895443029395677e-09
1.03	-0.7515650220423079	-0.1911124329569301	0.5719575811559282	2.091940855326687	-0.308189665710183	0.09632602088726124	-0.4362599586430813	1.111501574318818	1.11150157431869	-0.1742556922523369	0.1744721643490073	-0.0475975949767141	-0.0690584547140492	0.05105749602091804	0.01243441095922735	0.04914216359711322	-0.1799949873614323	-0.00651890662518366	-0.04458663298460801	-3.18861235671795e-05	-0.1207925506368906	-0.1207925506368962	4.967071456428343e-05	-3.066084437481294e-05	0.001522261060323289	-0.004670195796180862	-0.486762922077084	-0.01196341664645036	-0.01847591178430145	-0.2226375873256568	0.2482397431587626	0.0322258462833628	0.3779422904489477	32.10389512664172	-19.30114713699612	2.314109372908549	0.3641778596380639	-734.0651842383279	-43.63893740674442	-3.372958420701834	2.096436118093135	0.4109074160223426	1.73441419044904	-6.559345660099079	-0.2211411529885749	-1.567541750304207	-0.0059020182710387	-4.230585585858309	-4.230585585857746	0.0156943757283371	-0.006839108207661038	-0.001468739673070981	-0.1672944891302233	-6.443990150706956e-09	-1.717916354140184e-08	4.917134626159899e-08	1.590841690014825e-09	-1.309504018269997e-08	5.685738884922848e-08	-1.244075982260431e-08
1.04	-0.7509489514143909	-0.1909673982912694	0.5725357569382488	2.089812245920555	-0.3082662364728637	0.09580212533669921	-0.4362611258911324	1.110082177683281	1.110082177682941	-0.1742552510364758	0.1744717886248077	-0.04758246185663673	-0.06911384174815569	0.07217986952243002	0.01658210632757724	0.06649202146536722	-0.24574696510314	-0.008789763117531709	-0.060186837323918	-0.0002091258348601487	-0.1630805031483854	-0.1630805031483848	3.717139465175525e-05	-4.351137721237016e-05	0.001508208735913252	-0.006401195418504579	-0.4865553405447581	-0.01187783902870414	-0.01850433223998779	-0.2226708029754637	0.2484144919845592	0.03230991665359202	0.3778959996247049	32.16614147883114	-19.35319392914001	2.327702782666702	0.1930516158792115	-734.0653257375986	-43.69561807839012	-3.42934857542024	2.136870464511116	0.4196179055827903	1.736425686983176	-6.600877410133104	-0.2406116324919264	-1.546648710032418	-0.03909917570095495	-4.227101610947268	-4.22710161094663	-0.03470936885401672	0.009556894286219392	-0.00243396508700284	-0.186509354694072	-8.171577907281059e-09	-2.329319551043018e-08	6.581026840898536e-08	6.953286084285252e-10	-1.687875780982419e-08	7.534387529005251e-08	-1.672034008540459e-08
1.05	-0.7501210513104157	-0.1907805888893054	0.5732873226074419	2.087025751475402	-0.3083653142648869	0.09512245985149213	-0.4362641731674493	1.108240151183414	1.108240151183354	-0.1742550012382172	0.1744712983730585	-0.04756743665504671	-0.06918633906519736	0.09341464010648896	0.02079040653249536	0.08381233365345077	-0.3115487601121618	-0.01101546034147163	-0.07573566386871533	-0.0003963394505962724	-0.2053121888850988	-0.2053121888850935	1.196185541819391e-05	-5.528203213438188e-05	0.001492991867977403	-0.008089102556213541	-0.4859662687024676	-0.01172089065046702	-0.01854909469052998	-0.2226878001161784	0.2485434455092113	0.03245471756055919	0.377627654821545	32.23387437409461	-19.43373772437988	2.347165357335775	0.006307063722311781	-733.7673629430683	-43.81600590430143	-3.503240391969393	2.118951385539433	0.4230308994881323	1.728513007994894	-6.569358728056048	-0.2120052018970699	-1.557427830098371	-0.007933966862435526	-4.219306622578053	-4.219306622577189	0.01344192559977364	-0.006676927048704501	-0.00163968914409763	-0.1585617339153328	-9.895618903104381e-09	-2.939192182443511e-08	8.243011636936582e-08	-2.009755531731512e-10	-2.06540589819708e-08	9.378978030323243e-08	-2.099161608162961e-08
1.06	-0.749080369294584	-0.1905513775209832	0.5742118272031721	2.083581333444004	-0.3084863403160641	0.09428762046005787	-0.4362689728814501	1.105976186912719	1.105976186912678	-0.1742550298009547	0.174470663837924	-0.04755267845043919	-0.06927544152173683	0.1147362518980966	0.02506249959921288	0.101079806772773	-0.3773316823918506	-0.01317941494745351	-0.09122161854932173	-0.0005596135603098864	-0.2474680573236027	-0.2474680573235922	-1.850080151485326e-05	-7.23679537181633e-05	0.001454809340144621	-0.009722223318181698	-0.4853771968592288	-0.01156394227231357	-0.01859385714218374	-0.2227047972571153	0.2486723990335931	0.03259951846739571	0.3773593100195746	32.29849007588043	-19.51500260970283	2.368190247172469	-0.1908802705640449	-733.5208991340965	-43.91621636134873	-3.595094193180276	2.154238706020582	0.4323764779429207	1.725857873230976	-6.597102864266713	-0.2282631089009383	-1.534074337195239	-0.0343112744946795	-4.211938151305086	-4.211938151304371	-0.03575999239400859	0.008493840955203847	-0.00702709706607133	-0.1755520795464661	-1.125389861914435e-08	-3.505039081003107e-08	9.734824807829208e-08	-1.465989832004103e-09	-2.415053155679199e-08	1.102041308768139e-07	-2.485385777124966e-08
1.07	-0.7478259488707282	-0.190279100071918	0.5753086846444834	2.079479235624312	-0.308628657434197	0.09329829943071211	-0.4362753765008609	1.103291142531486	1.103291142531613	-0.1742553996936287	0.1744698317934641	-0.04753845442560835	-0.06938057106759248	0.1361707539755519	0.02940616164069446	0.1182772181722178	-0.4430791085045989	-0.01526777408227554	-0.1066280319798102	-0.0007258189400824707	-0.289518211871817	-0.289518211871756	-5.248336552699868e-05	-9.593238524045907e-05	0.001383189398502298	-0.01128946521223875	-0.4844203141090181	-0.01133094101202914	-0.01865476560309463	-0.2227085089519269	0.2487645850345448	0.03279920746473981	0.3768706551721283	32.37041416049127	-19.6227654226421	2.395016107684733	-0.4074951041356771	-732.9926068935547	-44.07636136732922	-3.705567904772334	2.1414909238358	0.4373362136688658	1.714507700266496	-6.56225033700546	-0.196696183247683	-1.541765533843742	-0.008481459934238478	-4.198157254994438	-4.198157254987193	0.01322173913044958	-0.008094426984684079	-0.008247769584598108	-0.1451840688148893	-1.259272294796179e-08	-4.068544185262654e-08	1.121758629653325e-07	-2.75061635111321e-09	-2.763217282324481e-08	1.265104200440338e-07	-2.869434231690136e-08
